<svg width="512" height="512" viewBox="0 0 512 512" fill="none" xmlns="http://www.w3.org/2000/svg">
<g clip-path="url(#clip0_7_8)">
<ellipse cx="252" cy="253.5" rx="200" ry="202.5" fill="url(#paint0_radial_7_8)"/>
<mask id="mask0_7_8" style="mask-type:alpha" maskUnits="userSpaceOnUse" x="54" y="58" width="399" height="395">
<ellipse cx="253.484" cy="255.571" rx="198.757" ry="196.67" fill="#D9D9D9"/>
</mask>
<g mask="url(#mask0_7_8)">
<g filter="url(#filter0_d_7_8)">
<path d="M102.306 450.661C102.143 450.888 102.082 451.175 102.139 451.449C107.681 478.025 119.028 495.955 135.145 503.591C151.349 511.269 171.851 508.294 194.753 494.941C217.655 481.589 242.216 458.29 266.163 427.202C290.111 396.114 312.67 358.241 331.753 317.089C350.837 275.938 365.827 232.837 375.337 191.778C384.847 150.718 388.569 113.027 386.158 82.1918C383.748 51.357 375.283 28.3757 361.547 15.3751C347.915 2.47288 329.528 -0.185165 308.067 7.6362C307.761 7.74779 307.527 8.0045 307.444 8.3197L295.143 55.1957C294.937 55.9788 295.702 56.6719 296.468 56.4111C313.054 50.7691 327.276 53.0605 337.896 63.112C348.901 73.528 355.683 91.9407 357.614 116.645C359.546 141.35 356.564 171.549 348.945 204.446C341.325 237.343 329.315 271.875 314.025 304.845C298.736 337.816 280.661 368.16 261.475 393.067C242.288 417.975 222.609 436.642 204.261 447.34C185.912 458.039 169.486 460.422 156.503 454.271C143.975 448.335 135.044 434.637 130.468 414.381C130.276 413.531 129.164 413.294 128.655 414.002L102.306 450.661Z" fill="url(#paint1_linear_7_8)" style="mix-blend-mode:hard-light" shape-rendering="crispEdges"/>
</g>
</g>
<path d="M103.999 457.902C103.835 458.141 103.783 458.443 103.858 458.723C110.348 483.147 122.296 499.06 138.659 505.065C155.122 511.106 175.545 506.933 198.119 492.914C220.694 478.896 244.723 455.465 268.079 424.697C291.434 393.929 313.395 356.773 332.016 316.522C350.637 276.271 365.343 234.165 374.832 193.936C384.321 153.707 388.3 116.596 386.416 85.8896C384.532 55.1832 376.843 31.8297 364.031 17.8976C351.329 4.08502 333.98 -0.0444144 313.497 5.86148C313.167 5.95659 312.908 6.21751 312.815 6.54791L299.464 53.8692C299.25 54.627 299.958 55.3258 300.719 55.1248C316.555 50.9417 329.984 54.3644 339.886 65.1329C350.151 76.2954 356.311 95.0062 357.821 119.608C359.33 144.21 356.143 173.944 348.54 206.175C340.938 238.407 329.155 272.141 314.236 304.391C299.317 336.64 281.722 366.409 263.009 391.06C244.297 415.712 225.044 434.485 206.958 445.716C188.871 456.948 172.508 460.292 159.318 455.451C146.605 450.786 137.218 438.655 131.92 420.081C131.685 419.257 130.588 419.067 130.104 419.774L103.999 457.902Z" fill="url(#paint2_linear_7_8)" style="mix-blend-mode:hard-light"/>
<mask id="mask1_7_8" style="mask-type:alpha" maskUnits="userSpaceOnUse" x="54" y="38" width="392" height="419">
<ellipse cx="250.354" cy="247.224" rx="195.627" ry="209.19" fill="#D9D9D9"/>
</mask>
<g mask="url(#mask1_7_8)">
<g filter="url(#filter1_d_7_8)">
<path d="M494.845 211.977C495.126 211.925 495.373 211.752 495.519 211.507C509.058 188.889 512.318 168.522 504.993 152.271C497.628 135.927 479.795 124.275 453.147 118.394C426.499 112.512 391.897 112.591 352.543 118.624C313.189 124.656 270.355 136.447 228.007 152.904C185.659 169.362 145.166 189.954 110.274 212.775C75.3827 235.596 47.2216 259.909 28.3974 283.462C9.57316 307.015 0.694336 329.047 2.58278 347.52C4.45786 365.861 16.8882 380.105 38.7326 388.952C39.025 389.071 39.3594 389.044 39.6284 388.879L80.5141 363.834C81.216 363.404 81.1267 362.353 80.3704 362.028C63.7807 354.903 54.3365 343.724 52.8768 329.445C51.3638 314.645 58.4775 296.992 73.5594 278.122C88.6414 259.251 111.204 239.772 139.159 221.488C167.114 203.203 199.558 186.705 233.487 173.519C267.416 160.333 301.734 150.887 333.265 146.054C364.795 141.221 392.519 141.157 413.869 145.869C435.219 150.582 449.507 159.917 455.408 173.012C461.102 185.645 458.813 201.383 448.763 218.861C448.333 219.609 448.973 220.532 449.821 220.374L494.845 211.977Z" fill="url(#paint3_linear_7_8)" style="mix-blend-mode:hard-light" shape-rendering="crispEdges"/>
</g>
</g>
<path d="M498.653 205.193C498.945 205.132 499.196 204.94 499.333 204.674C510.617 182.843 511.843 163.451 502.897 148.219C493.894 132.889 474.869 122.253 447.529 117.263C420.189 112.274 385.39 113.088 346.252 119.632C307.114 126.176 264.862 138.246 223.287 154.759C181.712 171.271 142.113 191.71 108.043 214.242C73.9735 236.774 46.4983 260.694 28.0824 283.857C9.66655 307.019 0.885942 328.699 2.5283 346.953C4.15849 365.071 16.0071 379.25 37.0202 388.239C37.3145 388.365 37.6545 388.342 37.9285 388.176L79.167 363.246C79.8662 362.823 79.7907 361.781 79.0465 361.444C63.0979 354.217 54.102 343.093 52.8331 328.991C51.5173 314.366 58.5523 296.996 73.3071 278.438C88.0619 259.881 110.075 240.716 137.372 222.663C164.668 204.611 196.395 188.235 229.705 175.005C263.015 161.775 296.867 152.105 328.224 146.862C359.582 141.618 387.463 140.966 409.368 144.964C431.273 148.961 446.515 157.483 453.729 169.765C460.683 181.606 459.965 196.585 451.658 213.442C451.284 214.201 451.945 215.071 452.772 214.896L498.653 205.193Z" fill="url(#paint4_linear_7_8)" style="mix-blend-mode:hard-light"/>
<mask id="mask2_7_8" style="mask-type:alpha" maskUnits="userSpaceOnUse" x="53" y="51" width="412" height="390">
<ellipse cx="259" cy="246" rx="206" ry="195" fill="#D9D9D9"/>
</mask>
<g mask="url(#mask2_7_8)">
<g filter="url(#filter2_d_7_8)">
<path d="M384.066 459.019C384.364 459.491 384.851 459.819 385.401 459.916C411.909 464.619 432.63 460.794 445.68 448.779C458.87 436.633 463.795 416.51 459.998 390.273C456.201 364.037 443.804 332.534 423.956 298.681C404.108 264.829 377.449 229.72 346.448 196.606C315.447 163.492 281.105 133.442 246.602 109.238C212.098 85.0342 178.548 67.4585 149.057 58.1379C119.566 48.8174 95.0873 48.0532 77.8866 55.9161C60.946 63.6602 51.6043 79.5258 50.6897 102.077C50.6633 102.728 50.9646 103.353 51.487 103.743L88.3783 131.254C89.6763 132.222 91.5418 131.323 91.6797 129.71C93.0881 113.235 100.474 101.587 113.281 95.7329C127.063 89.4331 146.675 90.0453 170.303 97.513C193.932 104.981 220.812 119.062 248.456 138.454C276.1 157.847 303.615 181.923 328.453 208.454C353.291 234.985 374.65 263.114 390.552 290.236C406.455 317.359 416.387 342.599 419.429 363.62C422.471 384.641 418.526 400.763 407.957 410.494C398.137 419.537 382.892 422.79 363.476 420.028C361.75 419.783 360.475 421.678 361.406 423.152L384.066 459.019Z" fill="url(#paint5_linear_7_8)" style="mix-blend-mode:hard-light" shape-rendering="crispEdges"/>
</g>
</g>
<path d="M392.852 460.328C393.177 460.814 393.704 461.134 394.286 461.198C418.917 463.893 437.712 458.442 449.038 445.308C460.506 432.012 463.964 411.251 459.107 384.864C454.251 358.478 441.228 327.281 421.194 294.036C401.16 260.791 374.733 226.524 344.253 194.272C313.773 162.02 280.181 132.777 246.453 109.134C212.725 85.4904 179.902 68.1768 150.891 58.7263C121.88 49.2758 97.5768 47.9802 80.1343 54.9543C62.9841 61.8114 52.9868 76.4552 50.9883 97.6202C50.9245 98.2955 51.2178 98.9577 51.7557 99.3709L88.7381 127.778C89.9952 128.744 91.8359 127.93 92.0577 126.361C94.2421 110.901 102.107 100.15 115.082 94.9622C129.057 89.3746 148.529 90.4127 171.772 97.9844C195.016 105.556 221.314 119.428 248.337 138.371C275.36 157.314 302.273 180.743 326.694 206.584C351.115 232.424 372.288 259.878 388.34 286.514C404.391 313.15 414.824 338.145 418.716 359.286C422.607 380.427 419.836 397.061 410.648 407.714C402.131 417.59 388.344 422.043 370.367 420.769C368.664 420.648 367.51 422.548 368.461 423.966L392.852 460.328Z" fill="url(#paint6_linear_7_8)" style="mix-blend-mode:hard-light"/>
<g filter="url(#filter3_d_7_8)">
<ellipse cx="235" cy="116.5" rx="28" ry="28.5" fill="url(#paint7_radial_7_8)"/>
</g>
<g filter="url(#filter4_d_7_8)">
<ellipse cx="370.338" cy="91.1032" rx="28.6919" ry="29.2136" transform="rotate(-110.27 370.338 91.1032)" fill="url(#paint8_radial_7_8)"/>
</g>
</g>
<defs>
<filter id="filter0_d_7_8" x="97.1184" y="2.24576" width="294.753" height="514.509" filterUnits="userSpaceOnUse" color-interpolation-filters="sRGB">
<feFlood flood-opacity="0" result="BackgroundImageFix"/>
<feColorMatrix in="SourceAlpha" type="matrix" values="0 0 0 0 0 0 0 0 0 0 0 0 0 0 0 0 0 0 127 0" result="hardAlpha"/>
<feOffset dy="4"/>
<feGaussianBlur stdDeviation="2.5"/>
<feComposite in2="hardAlpha" operator="out"/>
<feColorMatrix type="matrix" values="0 0 0 0 0 0 0 0 0 0 0 0 0 0 0 0 0 0 0.5 0"/>
<feBlend mode="normal" in2="BackgroundImageFix" result="effect1_dropShadow_7_8"/>
<feBlend mode="normal" in="SourceGraphic" in2="effect1_dropShadow_7_8" result="shape"/>
</filter>
<filter id="filter1_d_7_8" x="-2.66618" y="113.04" width="516.474" height="284.985" filterUnits="userSpaceOnUse" color-interpolation-filters="sRGB">
<feFlood flood-opacity="0" result="BackgroundImageFix"/>
<feColorMatrix in="SourceAlpha" type="matrix" values="0 0 0 0 0 0 0 0 0 0 0 0 0 0 0 0 0 0 127 0" result="hardAlpha"/>
<feOffset dy="4"/>
<feGaussianBlur stdDeviation="2.5"/>
<feComposite in2="hardAlpha" operator="out"/>
<feColorMatrix type="matrix" values="0 0 0 0 0 0 0 0 0 0 0 0 0 0 0 0 0 0 0.5 0"/>
<feBlend mode="normal" in2="BackgroundImageFix" result="effect1_dropShadow_7_8"/>
<feBlend mode="normal" in="SourceGraphic" in2="effect1_dropShadow_7_8" result="shape"/>
</filter>
<filter id="filter2_d_7_8" x="45.6881" y="49.5346" width="420.555" height="421.334" filterUnits="userSpaceOnUse" color-interpolation-filters="sRGB">
<feFlood flood-opacity="0" result="BackgroundImageFix"/>
<feColorMatrix in="SourceAlpha" type="matrix" values="0 0 0 0 0 0 0 0 0 0 0 0 0 0 0 0 0 0 127 0" result="hardAlpha"/>
<feOffset dy="4"/>
<feGaussianBlur stdDeviation="2.5"/>
<feComposite in2="hardAlpha" operator="out"/>
<feColorMatrix type="matrix" values="0 0 0 0 0 0 0 0 0 0 0 0 0 0 0 0 0 0 0.5 0"/>
<feBlend mode="normal" in2="BackgroundImageFix" result="effect1_dropShadow_7_8"/>
<feBlend mode="normal" in="SourceGraphic" in2="effect1_dropShadow_7_8" result="shape"/>
</filter>
<filter id="filter3_d_7_8" x="200" y="85.0001" width="66" height="67" filterUnits="userSpaceOnUse" color-interpolation-filters="sRGB">
<feFlood flood-opacity="0" result="BackgroundImageFix"/>
<feColorMatrix in="SourceAlpha" type="matrix" values="0 0 0 0 0 0 0 0 0 0 0 0 0 0 0 0 0 0 127 0" result="hardAlpha"/>
<feOffset dx="-2" dy="2"/>
<feGaussianBlur stdDeviation="2.5"/>
<feComposite in2="hardAlpha" operator="out"/>
<feColorMatrix type="matrix" values="0 0 0 0 0 0 0 0 0 0 0 0 0 0 0 0 0 0 0.5 0"/>
<feBlend mode="normal" in2="BackgroundImageFix" result="effect1_dropShadow_7_8"/>
<feBlend mode="normal" in="SourceGraphic" in2="effect1_dropShadow_7_8" result="shape"/>
</filter>
<filter id="filter4_d_7_8" x="334.179" y="59.3404" width="68.3188" height="67.5256" filterUnits="userSpaceOnUse" color-interpolation-filters="sRGB">
<feFlood flood-opacity="0" result="BackgroundImageFix"/>
<feColorMatrix in="SourceAlpha" type="matrix" values="0 0 0 0 0 0 0 0 0 0 0 0 0 0 0 0 0 0 127 0" result="hardAlpha"/>
<feOffset dx="-2" dy="2"/>
<feGaussianBlur stdDeviation="2.5"/>
<feComposite in2="hardAlpha" operator="out"/>
<feColorMatrix type="matrix" values="0 0 0 0 0 0 0 0 0 0 0 0 0 0 0 0 0 0 0.5 0"/>
<feBlend mode="normal" in2="BackgroundImageFix" result="effect1_dropShadow_7_8"/>
<feBlend mode="normal" in="SourceGraphic" in2="effect1_dropShadow_7_8" result="shape"/>
</filter>
<radialGradient id="paint0_radial_7_8" cx="0" cy="0" r="1" gradientUnits="userSpaceOnUse" gradientTransform="translate(350.078 165.546) rotate(134.28) scale(325.838 325.767)">
<stop offset="0.0336538" stop-color="#ECEBFF"/>
<stop offset="0.379808" stop-color="#4466B9"/>
<stop offset="0.692308" stop-color="#1E1B59"/>
<stop offset="0.9375"/>
</radialGradient>
<linearGradient id="paint1_linear_7_8" x1="138.945" y1="505.254" x2="364.051" y2="14.114" gradientUnits="userSpaceOnUse">
<stop offset="0.0961538"/>
<stop offset="0.480769" stop-color="#87BBA2"/>
<stop offset="0.740385" stop-color="white"/>
<stop offset="0.903846" stop-color="#87BBA2"/>
</linearGradient>
<linearGradient id="paint2_linear_7_8" x1="138.945" y1="505.254" x2="364.051" y2="14.114" gradientUnits="userSpaceOnUse">
<stop offset="0.0961538"/>
<stop offset="0.480769" stop-color="#87BBA2"/>
<stop offset="0.740385" stop-color="white"/>
<stop offset="0.8125" stop-color="#87BBA2"/>
<stop offset="0.899038" stop-color="#365144"/>
</linearGradient>
<linearGradient id="paint3_linear_7_8" x1="511.393" y1="175.781" x2="12.0677" y2="372.237" gradientUnits="userSpaceOnUse">
<stop offset="0.110577" stop-color="#87BBA2"/>
<stop offset="0.298077" stop-color="#D9D9D9"/>
<stop offset="0.519231" stop-color="#87BBA2"/>
<stop offset="1"/>
</linearGradient>
<linearGradient id="paint4_linear_7_8" x1="511.393" y1="175.781" x2="12.0677" y2="372.237" gradientUnits="userSpaceOnUse">
<stop stop-color="#416654"/>
<stop offset="0.163462" stop-color="#87BBA2"/>
<stop offset="0.298077" stop-color="#D9D9D9"/>
<stop offset="0.519231" stop-color="#87BBA2"/>
<stop offset="0.894231"/>
</linearGradient>
<linearGradient id="paint5_linear_7_8" x1="419.304" y1="460.233" x2="57.0888" y2="83.6922" gradientUnits="userSpaceOnUse">
<stop offset="0.0240385"/>
<stop offset="0.192308" stop-color="#87BBA2"/>
<stop offset="0.461538" stop-color="white"/>
<stop offset="0.850962" stop-color="#87BBA2"/>
<stop offset="0.927885"/>
</linearGradient>
<linearGradient id="paint6_linear_7_8" x1="419.304" y1="460.233" x2="57.0888" y2="83.6922" gradientUnits="userSpaceOnUse">
<stop/>
<stop offset="0.149038" stop-color="#2C3D35"/>
<stop offset="0.302885" stop-color="#87BBA2"/>
<stop offset="0.461538" stop-color="white"/>
<stop offset="0.644231" stop-color="#87BBA2"/>
<stop offset="0.822115" stop-color="#26352E"/>
<stop offset="1"/>
</linearGradient>
<radialGradient id="paint7_radial_7_8" cx="0" cy="0" r="1" gradientUnits="userSpaceOnUse" gradientTransform="translate(249 116.5) rotate(149.089) scale(39.6284 39.9659)">
<stop stop-color="white"/>
<stop offset="0.326923" stop-color="#8782C0"/>
<stop offset="0.831731"/>
</radialGradient>
<radialGradient id="paint8_radial_7_8" cx="0" cy="0" r="1" gradientUnits="userSpaceOnUse" gradientTransform="translate(366.165 100.634) rotate(-71.834) scale(35.1383 34.5108)">
<stop stop-color="white"/>
<stop offset="0.403846" stop-color="#8782C0"/>
<stop offset="0.8125"/>
<stop offset="1" stop-color="#363A56"/>
</radialGradient>
<clipPath id="clip0_7_8">
<rect width="512" height="512" rx="1" fill="white"/>
</clipPath>
</defs>
</svg>
